:SAMPLES-PER-SECOND 30
:FULLY-SPECIFIED
:DEGREES
97
root  -20.5695 38.7145 -8.71549 -43.8199 -75.566 32.1646
RightUpLeg  -14.329 -12.5919 -12.4045
RightLeg  2.351 -10.2599 3.20904
RightFoot  2.93222 -0.216718 1.99652
RightToes  2.91037e-010 0 -3.6325e-017
Spine  6.32549 0.100729 -4.73943
Spine1  14.414 0.311647 -1.89211
HEad  -3.46499 -8.29806 1.34055
LeftShoulder1  6.67819 -10.8893 -40.136
LeftArm  -7.6368 -8.55615 -30.8125
LeftForeArm  35.4385 -44.5158 -8.56244
LeftHand  -0.244104 0.0205437 5.32207
RightShoulder  5.41535 9.60486 35.3438
RightArm  -8.19721 -21.0698 39.597
RightForeArm  16.8397 5.11503 6.53083
RightHand  -0.33114 -1.57907 -9.96533
LeftUpLeg  16.5965 8.96728 -6.86211
LeftLeg  21.4943 1.80865 1.13781
LeftFoot  -20.4772 0.282222 2.00262
LeftToes  1.46425e-010 1.43544e-010 6.23391e-011
98
root  -22.152 38.6363 -8.78205 -38.749 -75.3256 27.3074
RightUpLeg  -15.2449 -14.7256 -11.2017
RightLeg  7.03135 -10.0131 2.67833
RightFoot  9.23578 0.287883 -1.2491
RightToes  2.91037e-010 0 -3.6325e-017
Spine  5.57508 0.00119929 -2.02512
Spine1  13.6602 0.644824 -2.79398
HEad  -2.45391 -9.57411 1.14242
LeftShoulder1  6.8434 -11.0033 -40.8642
LeftArm  -5.76922 -7.58079 -30.6645
LeftForeArm  34.2284 -41.6895 -7.72866
LeftHand  -0.244104 0.0205437 5.32207
RightShoulder  5.48712 9.64082 35.769
RightArm  -7.99151 -20.625 39.0563
RightForeArm  19.5361 4.30719 6.31576
RightHand  -0.3088 -1.70475 -9.56503
LeftUpLeg  17.8301 7.00254 -5.55307
LeftLeg  23.2476 2.6168 1.57566
LeftFoot  -20.5584 0.0560388 -0.813028
LeftToes  1.46425e-010 1.43544e-010 6.23391e-011
99
root  -23.7111 38.6774 -8.851 -31.5888 -75.9001 20.4565
RightUpLeg  -16.2256 -18.0135 -8.52585
RightLeg  10.9984 -6.77614 2.19939
RightFoot  13.1703 0.870648 -3.61713
RightToes  2.91037e-010 0 -3.6325e-017
Spine  4.70883 0.0423965 2.04504
Spine1  12.9412 1.29767 -4.00502
HEad  -1.40014 -10.5216 0.460361
LeftShoulder1  7.11587 -11.1845 -42.0567
LeftArm  -3.38525 -6.05327 -30.5048
LeftForeArm  32.5552 -36.9293 -6.45778
LeftHand  -0.244104 0.0205437 5.32207
RightShoulder  5.50274 9.54194 36.1944
RightArm  -8.3647 -19.2122 38.5097
RightForeArm  20.3319 3.3191 6.06523
RightHand  -0.322394 -1.50884 -9.51155
LeftUpLeg  17.9306 6.07171 -2.76103
LeftLeg  26.4766 2.91367 1.91177
LeftFoot  -19.0403 -0.241741 -5.49641
LeftToes  1.46425e-010 1.43544e-010 6.23391e-011
100
root  -25.142 38.7821 -8.98957 -23.3405 -76.769 12.6982
RightUpLeg  -17.1435 -20.4952 -5.09339
RightLeg  14.6969 -3.65307 1.53642
RightFoot  12.5533 1.31605 -5.82722
RightToes  2.91037e-010 0 -3.6325e-017
Spine  4.2977 0.316216 5.54976
Spine1  12.0745 1.93191 -4.33839
HEad  -0.742259 -10.9487 -0.440995
LeftShoulder1  7.33252 -11.3396 -42.9421
LeftArm  -1.20676 -3.92771 -31.2588
LeftForeArm  30.0542 -30.5654 -4.94732
LeftHand  -0.244104 0.0205437 5.32207
RightShoulder  5.46932 9.47981 36.1405
RightArm  -9.37263 -16.4771 38.2819
RightForeArm  18.0428 2.25685 5.86532
RightHand  -0.346418 -1.21593 -9.55542
LeftUpLeg  15.4651 6.43219 0.771374
LeftLeg  32.8881 3.40393 2.74969
LeftFoot  -13.5835 -0.100483 -9.17559
LeftToes  1.46425e-010 1.43544e-010 6.23391e-011
101
root  -26.3393 38.8976 -9.1911 -15.1971 -76.7084 5.07816
RightUpLeg  -17.1231 -21.2036 -2.70436
RightLeg  17.1841 -3.45732 1.07949
RightFoot  9.75473 1.46113 -7.46062
RightToes  2.91037e-010 0 -3.6325e-017
Spine  4.80604 0.356575 7.39106
Spine1  11.0986 1.93305 -3.24665
HEad  -1.22778 -11.0574 -0.636449
LeftShoulder1  7.47826 -11.5426 -43.2217
LeftArm  -0.124286 -1.54526 -32.7508
LeftForeArm  27.0091 -23.4468 -3.9657
LeftHand  -0.244104 0.0205437 5.32207
RightShoulder  5.43756 9.58011 35.5879
RightArm  -10.3248 -12.5256 38.2759
RightForeArm  12.3621 2.40956 6.03604
RightHand  -0.437693 -0.442016 -10.2483
LeftUpLeg  10.2291 6.62516 3.46563
LeftLeg  41.9919 5.02041 5.25882
LeftFoot  -4.17517 0.532781 -8.60057
LeftToes  1.46425e-010 1.43544e-010 6.23391e-011
